{
    "asset" : {
        "generator" : "Khronos glTF Blender I/O v1.6.16",
        "version" : "2.0"
    },
    "scene" : 0,
    "scenes" : [
        {
            "name" : "Scene",
            "nodes" : [
                0,
                1,
                2,
                3,
                4,
                5,
                6
            ]
        }
    ],
    "nodes" : [
        {
            "mesh" : 0,
            "name" : "room_1",
            "translation" : [
                -1.4718573093414307,
                -0.004554867744445801,
                0.7194015979766846
            ]
        },
        {
            "mesh" : 1,
            "name" : "room_2",
            "translation" : [
                -1.122194528579712,
                -0.0008510798215866089,
                -1.0513397455215454
            ]
        },
        {
            "mesh" : 2,
            "name" : "room_3",
            "translation" : [
                -0.1899014562368393,
                0,
                -0.6013546586036682
            ]
        },
        {
            "mesh" : 3,
            "name" : "room_4",
            "translation" : [
                1.1942695379257202,
                0,
                0.09811583161354065
            ]
        },
        {
            "mesh" : 4,
            "name" : "room_5",
            "translation" : [
                2.087033987045288,
                0,
                1.2075920104980469
            ]
        },
        {
            "mesh" : 5,
            "name" : "room_6",
            "translation" : [
                -0.2202860713005066,
                0,
                1.2153716087341309
            ]
        },
        {
            "mesh" : 6,
            "name" : "room_7",
            "translation" : [
                0.34131696820259094,
                0,
                1.5847941637039185
            ]
        }
    ],
    "meshes" : [
        {
            "name" : "Plane.007",
            "primitives" : [
                {
                    "attributes" : {
                        "POSITION" : 0,
                        "NORMAL" : 1,
                        "TEXCOORD_0" : 2
                    },
                    "indices" : 3
                }
            ]
        },
        {
            "name" : "Plane.008",
            "primitives" : [
                {
                    "attributes" : {
                        "POSITION" : 4,
                        "NORMAL" : 5,
                        "TEXCOORD_0" : 6
                    },
                    "indices" : 7
                }
            ]
        },
        {
            "name" : "Plane.009",
            "primitives" : [
                {
                    "attributes" : {
                        "POSITION" : 8,
                        "NORMAL" : 9,
                        "TEXCOORD_0" : 10
                    },
                    "indices" : 11
                }
            ]
        },
        {
            "name" : "Plane.010",
            "primitives" : [
                {
                    "attributes" : {
                        "POSITION" : 12,
                        "NORMAL" : 13,
                        "TEXCOORD_0" : 14
                    },
                    "indices" : 15
                }
            ]
        },
        {
            "name" : "Plane.011",
            "primitives" : [
                {
                    "attributes" : {
                        "POSITION" : 16,
                        "NORMAL" : 17,
                        "TEXCOORD_0" : 18
                    },
                    "indices" : 19
                }
            ]
        },
        {
            "name" : "Plane.012",
            "primitives" : [
                {
                    "attributes" : {
                        "POSITION" : 20,
                        "NORMAL" : 21,
                        "TEXCOORD_0" : 22
                    },
                    "indices" : 23
                }
            ]
        },
        {
            "name" : "Plane.013",
            "primitives" : [
                {
                    "attributes" : {
                        "POSITION" : 24,
                        "NORMAL" : 25,
                        "TEXCOORD_0" : 26
                    },
                    "indices" : 27
                }
            ]
        }
    ],
    "accessors" : [
        {
            "bufferView" : 0,
            "componentType" : 5126,
            "count" : 143,
            "max" : [
                0.2048693299293518,
                0.0650000050663948,
                0.772623598575592
            ],
            "min" : [
                -0.9806209802627563,
                -3.725290298461914e-09,
                -0.8511377573013306
            ],
            "type" : "VEC3"
        },
        {
            "bufferView" : 1,
            "componentType" : 5126,
            "count" : 143,
            "type" : "VEC3"
        },
        {
            "bufferView" : 2,
            "componentType" : 5126,
            "count" : 143,
            "type" : "VEC2"
        },
        {
            "bufferView" : 3,
            "componentType" : 5123,
            "count" : 225,
            "type" : "SCALAR"
        },
        {
            "bufferView" : 4,
            "componentType" : 5126,
            "count" : 122,
            "max" : [
                0.7671008110046387,
                0.06499999761581421,
                1.1688262224197388
            ],
            "min" : [
                -0.990630567073822,
                0,
                -0.6483306884765625
            ],
            "type" : "VEC3"
        },
        {
            "bufferView" : 5,
            "componentType" : 5126,
            "count" : 122,
            "type" : "VEC3"
        },
        {
            "bufferView" : 6,
            "componentType" : 5126,
            "count" : 122,
            "type" : "VEC2"
        },
        {
            "bufferView" : 7,
            "componentType" : 5123,
            "count" : 204,
            "type" : "SCALAR"
        },
        {
            "bufferView" : 8,
            "componentType" : 5126,
            "count" : 115,
            "max" : [
                0.44995978474617004,
                0.06499999761581421,
                0.8057026863098145
            ],
            "min" : [
                -0.6030981540679932,
                0,
                -0.8602975010871887
            ],
            "type" : "VEC3"
        },
        {
            "bufferView" : 9,
            "componentType" : 5126,
            "count" : 115,
            "type" : "VEC3"
        },
        {
            "bufferView" : 10,
            "componentType" : 5126,
            "count" : 115,
            "type" : "VEC2"
        },
        {
            "bufferView" : 11,
            "componentType" : 5123,
            "count" : 183,
            "type" : "SCALAR"
        },
        {
            "bufferView" : 12,
            "componentType" : 5126,
            "count" : 130,
            "max" : [
                0.5358939170837402,
                0.06499999761581421,
                0.11230021715164185
            ],
            "min" : [
                -1.3595364093780518,
                0,
                -1.0500249862670898
            ],
            "type" : "VEC3"
        },
        {
            "bufferView" : 13,
            "componentType" : 5126,
            "count" : 130,
            "type" : "VEC3"
        },
        {
            "bufferView" : 14,
            "componentType" : 5126,
            "count" : 130,
            "type" : "VEC2"
        },
        {
            "bufferView" : 15,
            "componentType" : 5123,
            "count" : 204,
            "type" : "SCALAR"
        },
        {
            "bufferView" : 16,
            "componentType" : 5126,
            "count" : 128,
            "max" : [
                0.3354845345020294,
                0.06499999761581421,
                0.48167070746421814
            ],
            "min" : [
                -1.55888831615448,
                0,
                -1.4759808778762817
            ],
            "type" : "VEC3"
        },
        {
            "bufferView" : 17,
            "componentType" : 5126,
            "count" : 128,
            "type" : "VEC3"
        },
        {
            "bufferView" : 18,
            "componentType" : 5126,
            "count" : 128,
            "type" : "VEC2"
        },
        {
            "bufferView" : 19,
            "componentType" : 5123,
            "count" : 204,
            "type" : "SCALAR"
        },
        {
            "bufferView" : 20,
            "componentType" : 5126,
            "count" : 78,
            "max" : [
                1.1096152067184448,
                0.06499999761581421,
                0.4725602865219116
            ],
            "min" : [
                0.2543468177318573,
                0,
                -0.628156304359436
            ],
            "type" : "VEC3"
        },
        {
            "bufferView" : 21,
            "componentType" : 5126,
            "count" : 78,
            "type" : "VEC3"
        },
        {
            "bufferView" : 22,
            "componentType" : 5126,
            "count" : 78,
            "type" : "VEC2"
        },
        {
            "bufferView" : 23,
            "componentType" : 5123,
            "count" : 120,
            "type" : "SCALAR"
        },
        {
            "bufferView" : 24,
            "componentType" : 5126,
            "count" : 122,
            "max" : [
                -0.2268129289150238,
                0.06499999761581421,
                0.10671627521514893
            ],
            "min" : [
                -1.3734040260314941,
                0,
                -1
            ],
            "type" : "VEC3"
        },
        {
            "bufferView" : 25,
            "componentType" : 5126,
            "count" : 122,
            "type" : "VEC3"
        },
        {
            "bufferView" : 26,
            "componentType" : 5126,
            "count" : 122,
            "type" : "VEC2"
        },
        {
            "bufferView" : 27,
            "componentType" : 5123,
            "count" : 204,
            "type" : "SCALAR"
        }
    ],
    "bufferViews" : [
        {
            "buffer" : 0,
            "byteLength" : 1716,
            "byteOffset" : 0
        },
        {
            "buffer" : 0,
            "byteLength" : 1716,
            "byteOffset" : 1716
        },
        {
            "buffer" : 0,
            "byteLength" : 1144,
            "byteOffset" : 3432
        },
        {
            "buffer" : 0,
            "byteLength" : 450,
            "byteOffset" : 4576
        },
        {
            "buffer" : 0,
            "byteLength" : 1464,
            "byteOffset" : 5028
        },
        {
            "buffer" : 0,
            "byteLength" : 1464,
            "byteOffset" : 6492
        },
        {
            "buffer" : 0,
            "byteLength" : 976,
            "byteOffset" : 7956
        },
        {
            "buffer" : 0,
            "byteLength" : 408,
            "byteOffset" : 8932
        },
        {
            "buffer" : 0,
            "byteLength" : 1380,
            "byteOffset" : 9340
        },
        {
            "buffer" : 0,
            "byteLength" : 1380,
            "byteOffset" : 10720
        },
        {
            "buffer" : 0,
            "byteLength" : 920,
            "byteOffset" : 12100
        },
        {
            "buffer" : 0,
            "byteLength" : 366,
            "byteOffset" : 13020
        },
        {
            "buffer" : 0,
            "byteLength" : 1560,
            "byteOffset" : 13388
        },
        {
            "buffer" : 0,
            "byteLength" : 1560,
            "byteOffset" : 14948
        },
        {
            "buffer" : 0,
            "byteLength" : 1040,
            "byteOffset" : 16508
        },
        {
            "buffer" : 0,
            "byteLength" : 408,
            "byteOffset" : 17548
        },
        {
            "buffer" : 0,
            "byteLength" : 1536,
            "byteOffset" : 17956
        },
        {
            "buffer" : 0,
            "byteLength" : 1536,
            "byteOffset" : 19492
        },
        {
            "buffer" : 0,
            "byteLength" : 1024,
            "byteOffset" : 21028
        },
        {
            "buffer" : 0,
            "byteLength" : 408,
            "byteOffset" : 22052
        },
        {
            "buffer" : 0,
            "byteLength" : 936,
            "byteOffset" : 22460
        },
        {
            "buffer" : 0,
            "byteLength" : 936,
            "byteOffset" : 23396
        },
        {
            "buffer" : 0,
            "byteLength" : 624,
            "byteOffset" : 24332
        },
        {
            "buffer" : 0,
            "byteLength" : 240,
            "byteOffset" : 24956
        },
        {
            "buffer" : 0,
            "byteLength" : 1464,
            "byteOffset" : 25196
        },
        {
            "buffer" : 0,
            "byteLength" : 1464,
            "byteOffset" : 26660
        },
        {
            "buffer" : 0,
            "byteLength" : 976,
            "byteOffset" : 28124
        },
        {
            "buffer" : 0,
            "byteLength" : 408,
            "byteOffset" : 29100
        }
    ],
    "buffers" : [
        {
            "byteLength" : 29508,
            "uri" : "data:application/octet-stream;base64,"
        }
    ]
}
